<svg width="18" height="18" viewBox="0 0 18 18" fill="none" xmlns="http://www.w3.org/2000/svg">
<path fill-rule="evenodd" clip-rule="evenodd" d="M1.58499 0.317353C2.55405 1.28642 3.68659 2.07303 4.91794 2.63227C6.14929 3.19151 7.45534 3.51244 8.76152 3.57672C10.0677 3.64101 11.3484 3.44739 12.5306 3.00693C13.7127 2.56647 14.7731 1.88779 15.6513 1.00964L15.6826 1.04093L15.6826 1.04091L16.7433 2.10157L16.7432 2.10159L16.7745 2.13286C15.8964 3.01101 15.2177 4.07143 14.7772 5.25358C14.3368 6.43573 14.1431 7.71645 14.2074 9.02263C14.2717 10.3288 14.5926 11.6349 15.1519 12.8662C15.7111 14.0976 16.4977 15.2301 17.4668 16.1992L16.3824 17.2835C12.3795 13.2806 12.1862 8.16128 14.7517 4.09308L2.60113 16.2437L1.54047 15.183L13.6912 3.03234C9.62295 5.59793 4.50354 5.40466 0.500611 1.40173L1.58499 0.317353Z" fill="white"/>
</svg>
