<svg width="18" height="18" viewBox="0 0 18 18" fill="none" xmlns="http://www.w3.org/2000/svg">
<path fill-rule="evenodd" clip-rule="evenodd" d="M1.45511 0.687013C2.42417 1.65608 3.55671 2.44269 4.78806 3.00193C6.01941 3.56117 7.32546 3.8821 8.63163 3.94638C9.93781 4.01067 11.2185 3.81705 12.4007 3.37659C13.5828 2.93613 14.6433 2.25745 15.5214 1.3793L15.5527 1.41059L15.5527 1.41057L16.6134 2.47123L16.6134 2.47125L16.6446 2.50252C15.7665 3.38067 15.0878 4.44109 14.6473 5.62324C14.2069 6.80539 14.0133 8.08611 14.0775 9.39229C14.1418 10.6985 14.4628 12.0045 15.022 13.2359C15.5812 14.4672 16.3679 15.5998 17.3369 16.5688L16.2525 17.6532C12.2496 13.6503 12.0563 8.53094 14.6219 4.46274L2.47124 16.6134L1.41058 15.5527L13.5613 3.402C9.49307 5.96759 4.37366 5.77432 0.370728 1.77139L1.45511 0.687013Z" fill="#B49378"/>
</svg>
